# xmcd CD database file
#
# Track frame offsets:
#	150
#	19659
#	40335
#	52338
#	66448
#	82904
#	94063
#	104099
#	114430
#	134968
#	152230
#	168638
#	182081
#	190321
#
# Disc length: 2653 seconds
#
# Revision: 2
# Processed by: cddbd v1.5.2PL0 Copyright (c) Steve Scherf et al.
# Submitted via: CDex 1.70beta2
#
DISCID=d00a5b0e
DTITLE=Yuhki Kuramoto - Piano Affection(Memory of love)
DYEAR=1900
DGENRE=New Age
TTITLE0=Everlasting Gentle Thought
TTITLE1=Menory Of Love
TTITLE2=Salut D'Amour (Edward Elgar)
TTITLE3=Staendchen (Franz Schubert)
TTITLE4=Story Starts Like A Daydream
TTITLE5=Soothing By Plucking Heartstrings
TTITLE6=Feeling Sorrow
TTITLE7=Lake Louise
TTITLE8=Invitation To Sweet Dream
TTITLE9=Late Summer
TTITLE10=Lane Sprinkled With Stardust
TTITLE11=Virgin Road
TTITLE12=I Suppose Flowers Will Fall Down
TTITLE13=Second Romance
EXTD=
EXTT0=
EXTT1=
EXTT2=
EXTT3=
EXTT4=
EXTT5=
EXTT6=
EXTT7=
EXTT8=
EXTT9=
EXTT10=
EXTT11=
EXTT12=
EXTT13=
PLAYORDER=
